<?xml version="1.0" standalone="no"?>
<!DOCTYPE svg PUBLIC "-//W3C//DTD SVG 20010904//EN"
 "http://www.w3.org/TR/2001/REC-SVG-20010904/DTD/svg10.dtd">
<svg version="1.0" xmlns="http://www.w3.org/2000/svg"
 width="260.000000pt" height="260.000000pt" viewBox="0 0 260.000000 260.000000"
 preserveAspectRatio="xMidYMid meet">
<metadata>
Created by potrace 1.11, written by Peter Selinger 2001-2013
</metadata>
<g transform="translate(0.000000,260.000000) scale(0.100000,-0.100000)"
fill="#000000" stroke="none">
<path d="M1105 2585 c-275 -48 -505 -162 -704 -350 -77 -73 -175 -192 -210
-255 -128 -230 -182 -420 -186 -651 -5 -297 73 -550 248 -799 44 -63 211 -230
277 -277 167 -120 391 -211 585 -239 114 -16 315 -11 429 10 138 26 334 104
457 181 274 173 496 490 565 806 12 55 14 69 23 130 13 93 6 311 -14 404 -58
274 -165 476 -355 665 -194 194 -428 319 -695 370 -85 17 -336 19 -420 5z"/>
</g>
</svg>
