<?xml version="1.0" encoding="UTF-8"?><svg id="Layer_2" xmlns="http://www.w3.org/2000/svg" xmlns:xlink="http://www.w3.org/1999/xlink" viewBox="0 0 517.3 390.72"><defs><style>.cls-1{fill:url(#linear-gradient-2);}.cls-2{filter:url(#drop-shadow-1);}.cls-3{fill:url(#linear-gradient-5);filter:url(#drop-shadow-2);}.cls-4{fill:url(#linear-gradient-3);}.cls-5{fill:url(#linear-gradient);}.cls-6{fill:url(#linear-gradient-4);}</style><filter id="drop-shadow-1" filterUnits="userSpaceOnUse"><feOffset dx="0" dy="25.02"/><feGaussianBlur result="blur" stdDeviation="17.87"/><feFlood flood-color="#0d0d0d" flood-opacity="1"/><feComposite in2="blur" operator="in"/><feComposite in="SourceGraphic"/></filter><linearGradient id="linear-gradient" x1="251.06" y1="142.19" x2="356.14" y2="142.19" gradientTransform="matrix(1, 0, 0, 1, 0, 0)" gradientUnits="userSpaceOnUse"><stop offset="0" stop-color="#fff"/><stop offset="1" stop-color="#231f20"/></linearGradient><linearGradient id="linear-gradient-2" x1="0" y1="222.64" x2="273.64" y2="222.64" gradientTransform="matrix(1, 0, 0, 1, 0, 0)" gradientUnits="userSpaceOnUse"><stop offset="0" stop-color="#fff"/><stop offset=".81" stop-color="#231f20"/></linearGradient><linearGradient id="linear-gradient-3" x1="155.52" y1="140.08" x2="256.7" y2="140.08" xlink:href="#linear-gradient"/><linearGradient id="linear-gradient-4" x1="256.55" y1="224.69" x2="528.46" y2="224.69" xlink:href="#linear-gradient"/><linearGradient id="linear-gradient-5" x1="256.99" y1="200.7" x2="259.51" y2="-34.8" gradientTransform="matrix(1, 0, 0, 1, 0, 0)" gradientUnits="userSpaceOnUse"><stop offset="0" stop-color="#fff"/><stop offset=".13" stop-color="#cecdce"/><stop offset=".28" stop-color="#9a9999"/><stop offset=".43" stop-color="#6f6d6d"/><stop offset=".57" stop-color="#4e4b4c"/><stop offset=".71" stop-color="#363233"/><stop offset=".84" stop-color="#282425"/><stop offset=".94" stop-color="#231f20"/></linearGradient><filter id="drop-shadow-2" filterUnits="userSpaceOnUse"><feOffset dx="0" dy="25.02"/><feGaussianBlur result="blur-2" stdDeviation="17.87"/><feFlood flood-color="#0d0d0d" flood-opacity="1"/><feComposite in2="blur-2" operator="in"/><feComposite in="SourceGraphic"/></filter></defs><g id="Layer_1-2"><g><g class="cls-2"><path class="cls-5" d="M350.04,175.63c19.28-26.12,14.31-63.37-11.12-83.18h0c-25.42-19.82-61.66-14.7-80.95,11.42l-1.27,1.72,72.4,98.4,20.93-28.36Z"/><path class="cls-1" d="M178.81,211.11L95.39,97.72c-19.35-26.3-53.74-28.74-76.42-5.43h0c-22.69,23.31-25.42,63.9-6.07,90.2l117.76,160.07c3.47,5.33,7.84,10.18,13.1,14.28,.48,.37,.97,.72,1.45,1.07h.01c.67,.5,1.34,.97,2.03,1.42,.21,.14,.41,.28,.62,.41,.52,.34,1.04,.67,1.57,.99,.37,.22,.74,.44,1.11,.66,.4,.23,.79,.45,1.19,.67,.51,.28,1.03,.55,1.55,.82,.27,.14,.54,.27,.82,.41,.67,.33,1.34,.64,2.02,.93,.13,.06,.26,.11,.39,.17,18.35,7.89,40.18,5.84,57.19-7.38h0c5.75-4.47,10.44-9.83,14.06-15.74l28.77-38.98-72.4-98.4-5.34,7.23Z"/><path class="cls-4" d="M250.92,97.72c-19.35-26.3-53.74-28.74-76.42-5.43h0c-22.69,23.31-25.42,63.9-6.07,90.2l15.73,21.38,72.55-98.29-5.79-7.87Z"/><path class="cls-6" d="M494.44,92.45c-25.42-19.82-61.66-14.7-80.95,11.42l-79.16,107.24-5.23-7.11-72.55,98.29,29.63,40.28c3.47,5.33,7.84,10.18,13.1,14.28,.48,.37,.97,.72,1.45,1.07h.01c.67,.5,1.34,.97,2.03,1.42,.21,.14,.41,.28,.62,.41,.52,.34,1.04,.67,1.57,.99,.37,.22,.74,.44,1.11,.66,.4,.23,.79,.45,1.19,.67,.51,.28,1.03,.55,1.55,.82,.27,.14,.54,.27,.82,.41,.67,.33,1.34,.64,2.02,.93,.13,.06,.26,.11,.39,.17,18.35,7.89,40.18,5.84,57.19-7.38h0c5.75-4.47,10.44-9.83,14.06-15.74l122.25-165.62c19.28-26.12,14.31-63.37-11.12-83.18Z"/></g><path class="cls-3" d="M415.21,44.36h0c-25.27-19.16-61.28-14.22-80.45,11.05l-78.67,103.71L173.19,49.46c-19.23-25.43-53.41-27.8-75.95-5.25h0c-22.55,22.55-25.26,61.8-6.03,87.24l117.04,154.81c3.45,5.16,7.79,9.85,13.02,13.81,.48,.36,.96,.7,1.44,1.04h.01c.67,.48,1.34,.94,2.01,1.38,.2,.13,.41,.27,.62,.4,.52,.33,1.04,.64,1.56,.95,.36,.22,.73,.43,1.1,.63,.39,.22,.79,.43,1.18,.64,.51,.27,1.03,.53,1.54,.79,.27,.13,.54,.26,.81,.39,.67,.31,1.34,.62,2.01,.9,.13,.05,.26,.11,.38,.16,18.24,7.63,39.93,5.64,56.84-7.14h0c5.71-4.32,10.38-9.5,13.98-15.22l121.5-160.18c19.16-25.27,14.22-61.28-11.05-80.45Z"/></g></g></svg>