<?xml version="1.0" encoding="UTF-8"?><svg id="Layer_1" xmlns="http://www.w3.org/2000/svg" xmlns:xlink="http://www.w3.org/1999/xlink" viewBox="0 0 1280 800"><defs><style>.cls-1{fill:url(#linear-gradient-2);}.cls-2{filter:url(#drop-shadow-1);}.cls-3{fill:url(#linear-gradient-5);filter:url(#drop-shadow-2);}.cls-4{fill:url(#linear-gradient-3);}.cls-5{fill:url(#linear-gradient);}.cls-6{fill:url(#linear-gradient-4);}</style><filter id="drop-shadow-1" filterUnits="userSpaceOnUse"><feOffset dx="0" dy="47.92"/><feGaussianBlur result="blur" stdDeviation="34.23"/><feFlood flood-color="#0d0d0d" flood-opacity="1"/><feComposite in2="blur" operator="in"/><feComposite in="SourceGraphic"/></filter><linearGradient id="linear-gradient" x1="625.46" y1="251.63" x2="826.71" y2="251.63" gradientTransform="matrix(1, 0, 0, 1, 0, 0)" gradientUnits="userSpaceOnUse"><stop offset="0" stop-color="#fff"/><stop offset="1" stop-color="#231f20"/></linearGradient><linearGradient id="linear-gradient-2" x1="144.61" y1="405.73" x2="668.71" y2="405.73" gradientTransform="matrix(1, 0, 0, 1, 0, 0)" gradientUnits="userSpaceOnUse"><stop offset="0" stop-color="#fff"/><stop offset=".81" stop-color="#231f20"/></linearGradient><linearGradient id="linear-gradient-3" x1="442.48" y1="247.6" x2="636.27" y2="247.6" gradientTransform="matrix(1, 0, 0, 1, 0, 0)" gradientUnits="userSpaceOnUse"><stop offset="0" stop-color="#fff"/><stop offset="1" stop-color="#231f20"/></linearGradient><linearGradient id="linear-gradient-4" x1="635.98" y1="409.65" x2="1156.76" y2="409.65" gradientTransform="matrix(1, 0, 0, 1, 0, 0)" gradientUnits="userSpaceOnUse"><stop offset="0" stop-color="#fff"/><stop offset="1" stop-color="#231f20"/></linearGradient><linearGradient id="linear-gradient-5" x1="636.81" y1="363.7" x2="641.64" y2="-87.34" gradientTransform="matrix(1, 0, 0, 1, 0, 0)" gradientUnits="userSpaceOnUse"><stop offset="0" stop-color="#fff"/><stop offset=".13" stop-color="#cecdce"/><stop offset=".28" stop-color="#9a9999"/><stop offset=".43" stop-color="#6f6d6d"/><stop offset=".57" stop-color="#4e4b4c"/><stop offset=".71" stop-color="#363233"/><stop offset=".84" stop-color="#282425"/><stop offset=".94" stop-color="#231f20"/></linearGradient><filter id="drop-shadow-2" filterUnits="userSpaceOnUse"><feOffset dx="0" dy="47.92"/><feGaussianBlur result="blur-2" stdDeviation="34.23"/><feFlood flood-color="#0d0d0d" flood-opacity="1"/><feComposite in2="blur-2" operator="in"/><feComposite in="SourceGraphic"/></filter></defs><g class="cls-2"><path class="cls-5" d="M815.02,315.7c36.93-50.04,27.4-121.37-21.29-159.32h0c-48.69-37.95-118.11-28.16-155.04,21.88l-2.43,3.29,138.66,188.47,40.09-54.32Z"/><path class="cls-1" d="M487.09,383.64l-159.77-217.17c-37.06-50.37-102.92-55.05-146.37-10.4h0c-43.45,44.65-48.68,122.39-11.62,172.76l225.55,306.57c6.65,10.22,15.02,19.51,25.09,27.35,.92,.71,1.85,1.38,2.78,2.06l.02,.02c1.28,.94,2.58,1.84,3.88,2.71,.39,.26,.79,.53,1.19,.79,1,.65,2,1.28,3.01,1.89,.7,.43,1.41,.85,2.12,1.26,.76,.43,1.52,.86,2.28,1.28,.99,.54,1.98,1.06,2.98,1.56,.52,.26,1.04,.52,1.57,.78,1.28,.62,2.58,1.22,3.88,1.79,.25,.11,.49,.22,.74,.32,35.15,15.11,76.95,11.18,109.54-14.14h0c11.01-8.55,20-18.82,26.93-30.15l55.1-74.65-138.66-188.47-10.23,13.85Z"/><path class="cls-4" d="M625.18,166.47c-37.06-50.37-102.92-55.05-146.37-10.4h0c-43.45,44.65-48.68,122.39-11.62,172.76l30.13,40.96,138.95-188.25-11.09-15.07Z"/><path class="cls-6" d="M1091.6,156.38c-48.69-37.95-118.11-28.16-155.04,21.88l-151.61,205.39-10.03-13.63-138.95,188.25,56.75,77.14c6.65,10.22,15.02,19.51,25.09,27.35,.92,.71,1.85,1.38,2.78,2.06l.02,.02c1.28,.94,2.58,1.84,3.88,2.71,.39,.26,.79,.53,1.19,.79,1,.65,2,1.28,3.01,1.89,.7,.43,1.41,.85,2.12,1.26,.76,.43,1.52,.86,2.28,1.28,.99,.54,1.98,1.06,2.98,1.56,.52,.26,1.04,.52,1.57,.78,1.28,.62,2.58,1.22,3.88,1.79,.25,.11,.49,.22,.74,.32,35.15,15.11,76.95,11.18,109.54-14.14h0c11.01-8.55,20-18.82,26.93-30.15l234.15-317.21c36.93-50.04,27.4-121.37-21.29-159.32Z"/></g><path class="cls-3" d="M939.86,64.27h0c-48.39-36.71-117.38-27.23-154.08,21.16l-150.67,198.64L476.32,74.03c-36.83-48.71-102.29-53.24-145.47-10.06h0c-43.18,43.18-48.38,118.37-11.55,167.08l224.16,296.5c6.61,9.88,14.93,18.86,24.93,26.45,.91,.69,1.84,1.33,2.77,1.99h.02c1.27,.92,2.56,1.79,3.86,2.64,.39,.26,.78,.51,1.18,.76,.99,.63,1.99,1.24,2.99,1.83,.7,.41,1.4,.82,2.11,1.21,.75,.42,1.51,.83,2.27,1.23,.98,.52,1.97,1.02,2.96,1.51,.52,.25,1.04,.51,1.56,.75,1.27,.6,2.56,1.18,3.85,1.73,.24,.1,.49,.21,.73,.31,34.93,14.62,76.48,10.81,108.86-13.67h0c10.94-8.27,19.88-18.2,26.77-29.16l232.71-306.79c36.71-48.39,27.23-117.38-21.16-154.08Z"/></svg>