<svg xmlns="http://www.w3.org/2000/svg" width="1825.809" height="329.858" viewBox="0 0 1825.809 329.858">
  <g id="Group_8" data-name="Group 8" transform="translate(509 -240.235)">
    <g id="Group_1" data-name="Group 1" transform="translate(-12991 -5896.108)">
      <g id="Group_6" data-name="Group 6" transform="translate(12482 6136.343)">
        <g id="Path_7" data-name="Path 7" fill="#393e44">
          <path d="M 1825.308715820313 329.3578186035156 L 5.577713966369629 329.3578186035156 L 761.5548095703125 192.7228240966797 L 977.777099609375 152.1169128417969 L 1825.308715820313 0.59747713804245 L 1825.308715820313 329.3578186035156 Z" stroke="none"/>
          <path d="M 1824.808715820313 328.8578186035156 L 1824.808715820313 1.19463574886322 L 977.869384765625 152.6082763671875 L 761.6505126953125 193.2135009765625 L 761.6470947265625 193.2141876220703 L 761.6439208984375 193.2148590087891 L 11.15561580657959 328.8578186035156 L 1824.808715820313 328.8578186035156 M 1825.808715820313 329.8578186035156 L 3.972833656007424e-05 329.8578186035156 L 761.4659423828125 192.2307739257813 L 977.684814453125 151.6255493164063 L 1825.808715820313 9.144176146946847e-05 L 1825.808715820313 329.8578186035156 Z" stroke="none" fill="#707070"/>
        </g>
        <g id="Path_8" data-name="Path 8" transform="translate(1825.808 329.858) rotate(180)" fill="#77fdc8">
          <path d="M 1825.308715820313 329.3578186035156 L 2.524079322814941 329.3578186035156 L 459.5442504882813 140.8834991455078 L 1045.575317382813 140.8834991455078 L 1045.619873046875 140.8834991455078 L 1045.663940429688 140.8755493164063 L 1825.308715820313 0.5980472564697266 L 1825.308715820313 329.3578186035156 Z" stroke="none"/>
          <path d="M 1824.808715820313 1.195953369140625 L 1045.752319335938 141.3675842285156 L 1045.66455078125 141.3834991455078 L 1045.5751953125 141.3834991455078 L 459.6434326171875 141.3834991455078 L 5.048095703125 328.8578186035156 L 1824.808715820313 328.8578186035156 L 1824.808715820313 1.195953369140625 M 1825.808715820313 9.1552734375e-05 L 1825.808715820313 329.8578186035156 L 0 329.8578186035156 L 459.445068359375 140.3834991455078 L 1045.5751953125 140.3834991455078 L 1825.808715820313 9.1552734375e-05 Z" stroke="none" fill="#707070"/>
        </g>
        <text id="Valentina_Pisoni_Wickham" data-name="Valentina Pisoni Wickham" transform="translate(56 119.765)" fill="#393e44" font-size="92" font-family="MicrosoftYaHeiUI-Bold, Microsoft YaHei UI" font-weight="700"><tspan x="0" y="0">Valentina Pisoni Wickham</tspan></text>
        <text id="UX_UI" data-name="UX/UI" transform="translate(1468 283.765)" fill="#77fdc8" font-size="98" font-family="MicrosoftYaHeiUI-Bold, Microsoft YaHei UI" font-weight="700"><tspan x="0" y="0">UX/UI</tspan></text>
      </g>
    </g>
    <g id="Group_7" data-name="Group 7" transform="translate(-12991 -5896.108)">
      <g id="Group_6-2" data-name="Group 6" transform="translate(12482 6136.343)">
        <g id="Path_7-2" data-name="Path 7" fill="#393e44">
          <path d="M 1825.308715820313 329.3578186035156 L 5.577713966369629 329.3578186035156 L 761.5548095703125 192.7228240966797 L 977.777099609375 152.1169128417969 L 1825.308715820313 0.59747713804245 L 1825.308715820313 329.3578186035156 Z" stroke="none"/>
          <path d="M 1824.808715820313 328.8578186035156 L 1824.808715820313 1.19463574886322 L 977.869384765625 152.6082763671875 L 761.6505126953125 193.2135009765625 L 761.6470947265625 193.2141876220703 L 761.6439208984375 193.2148590087891 L 11.15561580657959 328.8578186035156 L 1824.808715820313 328.8578186035156 M 1825.808715820313 329.8578186035156 L 3.972833656007424e-05 329.8578186035156 L 761.4659423828125 192.2307739257813 L 977.684814453125 151.6255493164063 L 1825.808715820313 9.144176146946847e-05 L 1825.808715820313 329.8578186035156 Z" stroke="none" fill="#707070"/>
        </g>
        <g id="Path_8-2" data-name="Path 8" transform="translate(1825.808 329.858) rotate(180)" fill="#77fdc8">
          <path d="M 1825.308715820313 329.3578186035156 L 2.524079322814941 329.3578186035156 L 459.5442504882813 140.8834991455078 L 1045.575317382813 140.8834991455078 L 1045.619873046875 140.8834991455078 L 1045.663940429688 140.8755493164063 L 1825.308715820313 0.5980472564697266 L 1825.308715820313 329.3578186035156 Z" stroke="none"/>
          <path d="M 1824.808715820313 1.195953369140625 L 1045.752319335938 141.3675842285156 L 1045.66455078125 141.3834991455078 L 1045.5751953125 141.3834991455078 L 459.6434326171875 141.3834991455078 L 5.048095703125 328.8578186035156 L 1824.808715820313 328.8578186035156 L 1824.808715820313 1.195953369140625 M 1825.808715820313 9.1552734375e-05 L 1825.808715820313 329.8578186035156 L 0 329.8578186035156 L 459.445068359375 140.3834991455078 L 1045.5751953125 140.3834991455078 L 1825.808715820313 9.1552734375e-05 Z" stroke="none" fill="#707070"/>
        </g>
        <text id="Valentina_Pisoni_Wickham-2" data-name="Valentina Pisoni Wickham" transform="translate(56 119.765)" fill="#393e44" font-size="92" font-family="MicrosoftYaHeiUI-Bold, Microsoft YaHei UI" font-weight="700"><tspan x="0" y="0">Valentina Pisoni Wickham</tspan></text>
        <text id="UX_UI-2" data-name="UX/UI" transform="translate(1468 283.765)" fill="#77fdc8" font-size="98" font-family="MicrosoftYaHeiUI-Bold, Microsoft YaHei UI" font-weight="700"><tspan x="0" y="0">UX/UI</tspan></text>
      </g>
    </g>
  </g>
</svg>
