<?xml version="1.0" ?><svg data-name="Layer 1" id="Layer_1" viewBox="0 0 512 512" xmlns="http://www.w3.org/2000/svg"><defs><style>.cls-1{fill:#009cd6;}.cls-2{fill:#0598c6;}.cls-3{fill:#fff;}</style></defs><title/><path class="cls-1" d="M386.07,179.91V332.09a54,54,0,0,1-54,54H179.91a54,54,0,0,1-54-54V179.91a54,54,0,0,1,54-54H332.09a54,54,0,0,1,54,54Z"/><path class="cls-2" d="M386.07,179.91V332.09a54,54,0,0,1-54,54H179.91a53.89,53.89,0,0,1-40.58-18.37L367.7,139.33A53.89,53.89,0,0,1,386.07,179.91Z"/><rect class="cls-3" height="115.04" width="35.4" x="176.52" y="225.03"/><path class="cls-3" d="M304.34,225c-34.82,0-42.28,18.48-42.28,18.48V225H226.67v115h35.39V274.92c3-10.7,12.29-19.49,24.87-19.49,15.49,0,17.41,19.91,17.41,19.91v64.72h35.4V260.42A35.4,35.4,0,0,0,304.34,225Z"/><circle class="cls-3" cx="194.22" cy="193.89" r="21.96"/></svg>